/* XPM */
static char *monocle32[] = {
/* columns rows colors chars-per-pixel */
"32 32 90 1 ",
"  c #020101",
". c #080707",
"X c #060708",
"o c #070909",
"O c #0B0B0B",
"+ c #100F0F",
"@ c #0D1111",
"# c #131414",
"$ c #151B1C",
"% c #1A1E1E",
"& c #1C2425",
"* c #222121",
"= c #232D2E",
"- c #2D2D2D",
"; c #252F30",
": c #263132",
"> c #293436",
", c #2B3738",
"< c #2E3B3C",
"1 c #343434",
"2 c #313E3F",
"3 c #2F3E40",
"4 c #354345",
"5 c #364749",
"6 c #3C4D4F",
"7 c #3D4E50",
"8 c #484646",
"9 c #4B4A4A",
"0 c #415457",
"q c #435659",
"w c #485C5F",
"e c #4C6264",
"r c #4D6669",
"t c #526A6E",
"y c #566F71",
"u c #5B7578",
"i c #5B787C",
"p c #5F7D81",
"a c #638286",
"s c #668488",
"d c #69878C",
"f c #68888D",
"g c #6D8E94",
"h c #73959A",
"j c #759CA1",
"k c #799EA3",
"l c #7AA1A6",
"z c #77A2AA",
"x c #7CA6AD",
"c c #7BA8B0",
"v c gray60",
"b c #83ADB4",
"n c #83B0B7",
"m c #86B3BA",
"M c #89B6BD",
"N c #8AB8BD",
"B c #A8A6A6",
"V c #87BAC4",
"C c #8EBEC5",
"Z c #8DC2CC",
"A c #92C3CC",
"S c #96CAD3",
"D c #99CDD5",
"F c #9DD4DD",
"G c #9ED7E1",
"H c #9FD9E4",
"J c #A1DBE5",
"K c #A1DCE8",
"L c #A7E4EF",
"P c #A7E5F1",
"I c #AAE9F4",
"U c #A6ECFD",
"Y c #ABEDFD",
"T c #B3EFFD",
"R c #AEF3FF",
"E c #AEF8FF",
"W c #B1F5FF",
"Q c #BCF2FE",
"! c #B3F8FF",
"~ c #BCFAFF",
"^ c #C3F4FF",
"/ c #CAF4FE",
"( c #C4FAFF",
") c #D3F6FE",
"_ c #D9F7FE",
"` c #E6FAFE",
"' c #ECFBFE",
"] c #F3FDFF",
"[ c #FDFFFF",
"{ c None",
/* pixels */
"{{{{{{{{{{{{{{{{{{{{{{{{{{{{{{{{",
"{{{{{{{{{{{{{{{{{{{{{{{{{{{{{{{{",
"{{{{{{{{{{O   o@X   #{{{{{{{{{{{",
"{{{{{{{{+ @5acVZVzi2o #{{{{{{{{{",
"{{{{{{{ @rZYE~(((~!Im0X {{{{{{{{",
"{{{{{{ =cR!/'[]`_/QRWTj% {{{{{{{",
"{{{{{ 4FW/]['/TUUUYYYRWC; {{{{{{",
"{{{{ ,FE/[[/UUUYYYYYYYR!C&o{{{{{",
"{{{O#VE/['TYYYYYYYYYYYYY!loO{{{{",
"{{{ pEQ[]YUYYYYYYYYYYYYYRIe {{{{",
"{{ &FR']TUYYYYYYYYYYYYYYYWM#+{{{",
"{{ tRQ[/UYYYYYYYYYYYYYYYYRP7 {{{",
"{{ xE_'UYYYYYYYYYYYYYYYYYYRf {{{",
"{O$SE`/UYYYYYYYYYYYYYYYYYYWbO {{",
"{ ;GR'TYYYYYYYYYYYYYYYYYYYRC$81{",
"{ ,KT_YYYYYYYYYYYYYYYYYYYYEA$Bv ",
"{ ,HT/YYYYYYYYYYYYYYYYYYYYRA%91{",
"{ &DWQYYYYYYYYYYYYYYYYYYYYRm#-%{",
"{#@nWTYYYYYYIYYYYYYYYYYYYYTh 8{{",
"{{ aRYYYYYYYYYYYYYYYYYYYYRPt {{{",
"{{ 4JRYYYYYYYYYYYYYYYYYYYRA> {{{",
"{{oOkRYYYYYYYYYYYYYYYYYYRIs {{{{",
"{{{ 4DWYYYYYYYYYYYYYYYYYRM, {{{{",
"{{{{ yKWYYYYYYYYYYYYYYYRSw {{{{{",
"{{{{oOaKWYYYYYYYYYYYYTRDtoO{{{{{",
"{{{{{ #uDYWYYYYYYYYRRICro*{{{{{{",
"{{{{{{. 7kGIRRRRRRRPDh4 O{{{{{{{",
"{{{{{{{# $qgMDFGFAbd7@ {{{{{{{{{",
"{{{{{{{{{O o&2707<&. O{{{{{{{{{{",
"{{{{{{{{{{{{O  .  O{{{{{{{{{{{{{",
"{{{{{{{{{{{{{{{{{{{{{{{{{{{{{{{{",
"{{{{{{{{{{{{{{{{{{{{{{{{{{{{{{{{"
};
