/* XPM */
static char *monocle64[] = {
/* columns rows colors chars-per-pixel */
"64 64 98 2 ",
"   c #010101",
".  c #070909",
"X  c #0B0C0C",
"o  c #0C0F10",
"O  c #0E1212",
"+  c #121213",
"@  c #121718",
"#  c #151C1D",
"$  c #1C1C1C",
"%  c #1B2324",
"&  c #1F2728",
"*  c #1F292A",
"=  c #232323",
"-  c #232D2D",
";  c #2A2A2A",
":  c #242F30",
">  c #263233",
",  c #283435",
"<  c #2B3739",
"1  c #2D3A3C",
"2  c #323232",
"3  c #393939",
"4  c #303F41",
"5  c #344344",
"6  c #374648",
"7  c #3A4B4D",
"8  c #3D4E50",
"9  c #3F5154",
"0  c #425456",
"q  c #435659",
"w  c #475B5D",
"e  c #4A5E61",
"r  c #4C6265",
"t  c #51676A",
"y  c #536A6D",
"u  c #566E71",
"i  c #597376",
"p  c #5C767A",
"a  c #5E797C",
"s  c #607C7F",
"d  c #727272",
"f  c #627E82",
"g  c #658386",
"h  c #678488",
"j  c #69878A",
"k  c #6B898D",
"l  c #6D8C91",
"z  c #708F94",
"x  c #719195",
"c  c #75969A",
"v  c #77999E",
"b  c #789A9E",
"n  c #799DA2",
"m  c #7CA1A6",
"M  c #7EA4AA",
"N  c #7FA9AF",
"B  c #868686",
"V  c #80A7AC",
"C  c #81A8AE",
"Z  c #84ADB3",
"A  c #86B0B6",
"S  c #85B0B8",
"D  c #89B5BC",
"F  c #8BB9BF",
"G  c gray68",
"H  c #8DBBC3",
"J  c #8EC0C8",
"K  c #91C2CA",
"L  c #95C8CF",
"P  c #94C7D0",
"I  c #96CAD3",
"U  c #99CDD6",
"Y  c #9BD3DD",
"T  c #9DD6E1",
"R  c #9FDAE5",
"E  c #A1DBE5",
"W  c #A2DEE9",
"Q  c #A5E2ED",
"!  c #A7E6F2",
"~  c #A8E6F2",
"^  c #A9EAF6",
"/  c #A6ECFD",
"(  c #ABEDFD",
")  c #B2EEFD",
"_  c #AEF2FF",
"`  c #B1F4FF",
"'  c #BBF0FD",
"]  c #C3F2FD",
"[  c #CAF4FE",
"{  c #D3F6FD",
"}  c #D9F7FD",
"|  c gray92",
" . c #E2F9FE",
".. c #EAFBFE",
"X. c #F1F1F1",
"o. c #F2FCFE",
"O. c #FEFFFF",
"+. c None",
/* pixels */
"+.+.+.+.+.+.+.+.+.+.+.+.+.+.+.+.+.+.+.+.+.+.+.+.+.+.+.+.+.+.+.+.+.+.+.+.+.+.+.+.+.+.+.+.+.+.+.+.+.+.+.+.+.+.+.+.+.+.+.+.+.+.+.+.",
"+.+.+.+.+.+.+.+.+.+.+.+.+.+.+.+.+.+.+.+.+.+.+.+.+.+.+.+.+.+.+.+.+.+.+.+.+.+.+.+.+.+.+.+.+.+.+.+.+.+.+.+.+.+.+.+.+.+.+.+.+.+.+.+.",
"+.+.+.+.+.+.+.+.+.+.+.+.+.+.+.+.+.+.+.+.+.+.+.+.+.+.+.+.+.+.+.+.+.+.+.+.+.+.+.+.+.+.+.+.+.+.+.+.+.+.+.+.+.+.+.+.+.+.+.+.+.+.+.+.",
"+.+.+.+.+.+.+.+.+.+.+.+.+.+.+.+.+.+.+.+.+.+.+.+.+.+.@ + + .     X $ o $ +.+.+.+.+.+.+.+.+.+.+.+.+.+.+.+.+.+.+.+.+.+.+.+.+.+.+.+.",
"+.+.+.+.+.+.+.+.+.+.+.+.+.+.+.+.+.+.+.+.+.+.@ . .                         . o + +.+.+.+.+.+.+.+.+.+.+.+.+.+.+.+.+.+.+.+.+.+.+.+.",
"+.+.+.+.+.+.+.+.+.+.+.+.+.+.+.+.+.+.+.+.X               X + @ @ O .               o +.+.+.+.+.+.+.+.+.+.+.+.+.+.+.+.+.+.+.+.+.+.",
"+.+.+.+.+.+.+.+.+.+.+.+.+.+.+.+.+.$ .         o : 8 y g x n n n v l s r 6 = .         X +.+.+.+.+.+.+.+.+.+.+.+.+.+.+.+.+.+.+.+.",
"+.+.+.+.+.+.+.+.+.+.+.+.+.+.+.+.X       . > t c F Y W ^ ( _ _ _ _ ^ ~ E L Z k w &         o +.+.+.+.+.+.+.+.+.+.+.+.+.+.+.+.+.+.",
"+.+.+.+.+.+.+.+.+.+.+.+.+.+.+       . 5 j F E ^ _ _ _ _ ( / / / / / ( _ _ _ ! U N p >         +.+.+.+.+.+.+.+.+.+.+.+.+.+.+.+.+.",
"+.+.+.+.+.+.+.+.+.+.+.+.+..       , h K ~ ` ` ( / / _ ) ' [ [ [ [ ] ' _ ( / ( ` / Y Z i %       $ +.+.+.+.+.+.+.+.+.+.+.+.+.+.+.",
"+.+.+.+.+.+.+.+.+.+.+.+..     o e A W _ _ ( / _ [ } o.O.O.O.O.O.O.o.o...} ] ( ( _ ` ^ U v 7 .       +.+.+.+.+.+.+.+.+.+.+.+.+.+.",
"+.+.+.+.+.+.+.+.+.+.+..     % h P _ ` ( / ) } o.O.O.O.O.O.o.} [ ' ) _ ( ) ) ) ( ( ^ _ ` Q Z y +     @ +.+.+.+.+.+.+.+.+.+.+.+.+.",
"+.+.+.+.+.+.+.+.+.+..     , v E ` ( / ( } O.O.O.O.O.o.} ' ( / / ( ( ( ( ( / ( ( ( ( ( ( _ ^ H f $     . +.+.+.+.+.+.+.+.+.+.+.+.",
"+.+.+.+.+.+.+.+.+..     1 m Q ` _ / ' o.O.O.O.O.o.[ _ / / ( ( ( ( ( ( ( ( ( ( ( ( ( ( ( ( _ _ K j %     o +.+.+.+.+.+.+.+.+.+.+.",
"+.+.+.+.+.+.+.+.o     > n Q ` ^ / [ O.O.O.O.O.[ ( / ^ ( ( ( ( ( ( ( ( ( ( ( ( ( ( ( ( ( ( ( _ _ J j @     3 +.+.+.+.+.+.+.+.+.+.",
"+.+.+.+.+.+.+.+     # x E ` ( / [ O.O.O.O...) / ( ( ( ( ( ( ( ( ( ( ( ( ( ( ( ( ( ( ( ( ( ( ( ( _ H a X     +.+.+.+.+.+.+.+.+.+.",
"+.+.+.+.+.+.+..   . a U ` ( / [ O.O.O.O.{ / / ( ( ( ( ( ( ( ( ( ( ( ( ( ( ( ( ( ( ( ( ( ( ( ( ( _ ^ Z e     . +.+.+.+.+.+.+.+.+.",
"+.+.+.+.+.+.+     0 H _ ( / ] O.O.O.O.] / / ( ( ( ( ( ( ( ( ( ( ( ( ( ( ( ( ( ( ( ( ( ( ( ( ( ( ^ _ E n <     $ +.+.+.+.+.+.+.+.",
"+.+.+.+.+.+.    % m Q _ / ) o.O.O.O.' / ( ( ( ( ( ( ( ( ( ( ( ( ( ( ( ( ( ( ( ( ( ( ( ( ( ( ( ( ( _ ` K g X   . +.+.+.+.+.+.+.+.",
"+.+.+.+.+..     u I ` ( /  .O.O.O.[ / ( ( ( ( ( ( ( ( ( ( ( ( ( ( ( ( ^ ( ( ( ( ( ( ( ( ( ( ( ( ( ^ _ ^ M 8     o +.+.+.+.+.+.+.",
"+.+.+.+.+.    - M ^ _ / ' O.O.O.{ / ( ( ( ( ( ( ( ( ( ( ( ( ( ( ( ( ( ( ( ( ( ( ( ( ( ( ( ( ( ( ( ( ( _ P j O   . +.+.+.+.+.+.+.",
"+.+.+.+.+     t L ` ( / ..O.O. ./ ( ( ( ( ( ( ( ( ( ( ( ( ( ( ( ( ( ( ( ( ( ( ( ( ( ( ( ( ( ( ( ( ( ( _ ! M 6     +.+.+.+.+.+.+.",
"+.+.+.+..   # c Q ( ( ' O.O.o.) / ( ( ( ( ( ( ( ( ( ( ( ( ( ( ( ( ( ( ( ( ( ( ( ( ( ( ( ( ( ( ( ( ( ( ( _ H s .   o +.+.+.+.+.+.",
"+.+.+.+.    6 D _ ( / } O.O.[ / ( ( ( ( ( ( ( ( ( ( ( ( ( ( ( ( ( ( ( ( ( ( ( ( ( ( ( ( ( ( ( ( ( ( ( ( _ T c -   . +.+.+.+.+.+.",
"+.+.+.+     u U _ ( ( o.O.../ ( ( ( ( ( ( ( ( ( ( ( ( ( ( ( ( ( ( ( ( ( ( ( ( ( ( ( ( ( ( ( ( ( ( ( ( ( _ ^ C 0     +.+.+.+.+.+.",
"+.+.+..   + l E _ / ' O.O.] / ( ( ( ( ( ( ( ( ( ( ( ( ( ( ( ( ( ( ( ( ( ( ( ( ( ( ( ( ( ( ( ( ( ( ( ( ( ( ) H i     + +.+.+.+.+.",
"+.+.+..   - n ! ( / [ O.o.( ( ( ( ( ( ( ( ( ( ( ( ( ( ( ( ( ( ( ( ( ( ( ( ( ( ( ( ( ( ( ( ( ( ( ( ( ( ( ( _ P k O   o +.+.+.+.+.",
"+.+.+.    4 A _ ( / } O.[ / ( ( ( ( ( ( ( ( ( ( ( ( ( ( ( ( ( ( ( ( ( ( ( ( ( ( ( ( ( ( ( ( ( ( ( ( ( ( ( _ Y x %       X +.+.+.",
"+.+.o     0 H _ ( /  .O.) ( ( ( ( ( ( ( ( ( ( ( ( ( ( ( ( ( ( ( ( ( ( ( ( ( ( ( ( ( ( ( ( ( ( ( ( ( ( ( ( _ E n <   X $   . +.+.",
"+.+..     r H _ ( ( ..o.( ( ( ( ( ( ( ( ( ( ( ( ( ( ( ( _ ^ ( ( ( ( ( ( ( ( ( ( ( ( ( ( ( ( ( ( ( ( ( ( ( _ W M 6   ; | d   o +.",
"+.+.o     y K ` ( ( .. ./ ( ( ( ( ( ( ( ( ( ( ( ( ( ( ( ^ ( ( ( ( ( ( ( ( ( ( ( ( ( ( ( ( ( ( ( ( ( ( ( ( _ ! m 7   ; O.X.=   +.",
"+.+.o     y K ` ( / ..[ / ( ( ( ( ( ( ( ( ( ( ( ( ( ( ( _ ( ( ( ( ( ( ( ( ( ( ( ( ( ( ( ( ( ( ( ( ( ( ( ( _ ! m 9   ; O.X.=   +.",
"+.+.o     y H _ _ / } [ / ( ( ( ( ( ( ( ( ( ( ( ( ( ( ( ( ( ( ( ( ( ( ( ( ( ( ( ( ( ( ( ( ( ( ( ( ( ( ( ( _ W m 8   ; O.B   . +.",
"+.+..     r H _ ( / } [ / ( ( ( ( ( ( ( ( ( ( ( ( ( ( ( ( ( ( ( ( ( ( ( ( ( ( ( ( ( ( ( ( ( ( ( ( ( ( ( ( _ W n 6   + 2     +.+.",
"+.+.o     q S _ ( / [ ' / ( ( ( ( ( ( ( ( ( ( ( ( ( ( ( ( ( ( ( ( ( ( ( ( ( ( ( ( ( ( ( ( ( ( ( ( ( ( ( ( _ Y v 1         +.+.+.",
"+.+.$     5 M ^ ( ( ' ] / ( ( ( ( ( ( ( ( ( ( ( ( ( ( ( ( ( ( ( ( ( ( ( ( ( ( ( ( ( ( ( ( ( ( ( ( ( ( ( ( ` P c *   $ G = +.+.+.",
"+.+.+..   : v E _ ( _ ) ( ( ( ( ( ( ( ( ( ( ( ( ( ( ( ( ( ( ( ( ( ( ( ( ( ( ( ( ( ( ( ( ( ( ( ( ( ( ( ( ( ) D k +   = +.= +.+.+.",
"+.+.+.o   + k I _ ( ( ) ( ( ( ( ( ( ( ( ( ( ( ( ( ( ( ( ( ( ( ( ( ( ( ( ( ( ( ( ( ( ( ( ( ( ( ( ( ( ( ( ( ( V p .   + +.o +.+.+.",
"+.+.+.+     i D _ ( ( ( ( ( ( ( ( ( ( ( ( ( ( ( ( ( ( ( ( ( ( ( ( ( ( ( ( ( ( ( ( ( ( ( ( ( ( ( ( ( ( ( _ R n q     +.+.+ +.+.+.",
"+.+.+.+.    7 n Q _ ( ( ( ( ( ( ( ( ( ( ( ( ( ( ( ( ( ( ( ( ( ( ( ( ( ( ( ( ( ( ( ( ( ( ( ( ( ( ( ( ( ( ` H c -   . +.+.+ +.+.+.",
"+.+.+.+..   $ x K ` ( ( ( ( ( ( ( ( ( ( ( ( ( ( ( ( ( ( ( ( ( ( ( ( ( ( ( ( ( ( ( ( ( ( ( ( ( ( ( ( ( _ ^ M f .   o +.+.+ +.+.+.",
"+.+.+.+.o     u N ^ _ ( ( ( ( ( ( ( ( ( ( ( ( ( ( ( ( ( ( ( ( ( ( ( ( ( ( ( ( ( ( ( ( ( ( ( ( ( ( ( ( ` P v 8     +.+.+.o +.+.+.",
"+.+.+.+.+.    > v L ` ( ( ( ( ( ( ( ( ( ( ( ( ( ( ( ( ( ( ( ( ( ( ( ( ( ( ( ( ( ( ( ( ( ( ( ( ( ( / ( / m l +   . +.+.+.+ +.+.+.",
"+.+.+.+.+..     p M ! ( ( ( ( ( ( ( ( ( ( ( ( ( ( ( ( ( ( ( ( ( ( ( ( ( ( ( ( ( ( ( ( ( ( ( ( ( ( _ ` K c q     + +.+.+.o +.+.+.",
"+.+.+.+.+.+.    - c D ` ( ( ( ( ( ( ( ( ( ( ( ( ( ( ( ( ( ( ( ( ( ( ( ( ( ( ( ( ( ( ( ( ( ( ( ( ( ) W b k +   . +.+.+.+.+ +.+.+.",
"+.+.+.+.+.+..     r n U ` ( ( ( ( ( ( ( ( ( ( ( ( ( ( ( ( ( ( ( ( ( ( ( ( ( ( ( ( ( ( ( ( ( ( ( _ ( N v 4     o +.+.+.+.o +.+.+.",
"+.+.+.+.+.+.+.    X g n E _ ( ( ( ( ( ( ( ( ( ( ( ( ( ( ( ( ( ( ( ( ( ( ( ( ( ( ( ( ( ( ( ( ( ( ` D v t     X +.+.+.+.+.. +.+.+.",
"+.+.+.+.+.+.+.$     % x m Q _ ( ( ( ( ( ( ( ( ( ( ( ( ( ( ( ( ( ( ( ( ( ( ( ( ( ( ( ( ( ( ( ( ) J v g O     +.+.+.+.+.+.o +.+.+.",
"+.+.+.+.+.+.+.+..     1 c m Q ` ( ( ( ( ( ( ( ( ( ( ( ( ( ( ( ( ( ( ( ( ( ( ( ( ( ( ( ( ( ( ` K c z #     + +.+.+.+.+.+.o +.+.+.",
"+.+.+.+.+.+.+.+.+.X     6 c m W ` _ ( ( ( ( ( ( ( ( ( ( ( ( ( ( ( ( ( ( ( ( ( ( ( ( ( ( _ ) H c z &       +.+.+.+.+.+.+.X +.+.+.",
"+.+.+.+.+.+.+.+.+.+.      5 c v L _ _ ( ( ( ( ( ( ( ( ( ( ( ( ( ( ( ( ( ( ( ( ( ( ( ( ` ! Z c l %     $ +.+.+.+.+.+.+.+.+ +.+.+.",
"+.+.+.+.+.+.+.+.+.+.+..     > l v S Q ` ( ( ( ( ( ( ( ( ( ( ( ( ( ( ( ( ( ( ( ( ( ` ( U n v s @       +.+.+.+.+.+.+.+.+.+ +.+.+.",
"+.+.+.+.+.+.+.+.+.+.+.+.      + i c n H ! _ _ _ ( ( ( ( ( ( ( ( ( ( ( ( ( ( _ _ _ T N c v w .     + +.+.+.+.+.+.+.+.+.+.o +.+.+.",
"+.+.+.+.+.+.+.+.+.+.+.+.+.o       4 k v b H R _ ` _ _ ( ( ( ( ( ( ( ( _ ` _ ! U N c b a -       o +.+.+.+.+.+.+.+.+.+.+.o +.+.+.",
"+.+.+.+.+.+.+.+.+.+.+.+.+.+.+       o 9 k c v V H Y Q / ( _ _ ( _ ( ! R P S n c v f 4 .       @ +.+.+.+.+.+.+.+.+.+.+.+.+ +.+.+.",
"+.+.+.+.+.+.+.+.+.+.+.+.+.+.+.+..       o 4 i x v v b m M Z Z Z C M n b v c l y > .       + +.+.+.+.+.+.+.+.+.+.+.+.+.+.o +.+.+.",
"+.+.+.+.+.+.+.+.+.+.+.+.+.+.+.+.+.+ .         @ 1 e p j l z x z z l g i q , O         X +.+.+.+.+.+.+.+.+.+.+.+.+.+.+.+.+ +.+.+.",
"+.+.+.+.+.+.+.+.+.+.+.+.+.+.+.+.+.+.+.@ X             . + $ % % # O .             o +.+.+.+.+.+.+.+.+.+.+.+.+.+.+.+.+.+.+ +.+.+.",
"+.+.+.+.+.+.+.+.+.+.+.+.+.+.+.+.+.+.+.+.+.+.@ X                           . . + +.+.+.+.+.+.+.+.+.+.+.+.+.+.+.+.+.+.+.+.+ +.+.+.",
"+.+.+.+.+.+.+.+.+.+.+.+.+.+.+.+.+.+.+.+.+.+.+.+.+.+.+ o . + o + + . + + +.+.+.+.+.+.+.+.+.+.+.+.+.+.+.+.+.+.+.+.+.+.+.+.o +.+.+.",
"+.+.+.+.+.+.+.+.+.+.+.+.+.+.+.+.+.+.+.+.+.+.+.+.+.+.+.+.+.+.+.+.+.+.+.+.+.+.+.+.+.+.+.+.+.+.+.+.+.+.+.+.+.+.+.+.+.+.+.+.+ +.+.+.",
"+.+.+.+.+.+.+.+.+.+.+.+.+.+.+.+.+.+.+.+.+.+.+.+.+.+.+.+.+.+.+.+.+.+.+.+.+.+.+.+.+.+.+.+.+.+.+.+.+.+.+.+.+.+.+.+.+.+.+.+.o +.+.+.",
"+.+.+.+.+.+.+.+.+.+.+.+.+.+.+.+.+.+.+.+.+.+.+.+.+.+.+.+.+.+.+.+.+.+.+.+.+.+.+.+.+.+.+.+.+.+.+.+.+.+.+.+.+.+.+.+.+.+.+.+.+ +.+.+.",
"+.+.+.+.+.+.+.+.+.+.+.+.+.+.+.+.+.+.+.+.+.+.+.+.+.+.+.+.+.+.+.+.+.+.+.+.+.+.+.+.+.+.+.+.+.+.+.+.+.+.+.+.+.+.+.+.+.+.+.+.+ +.+.+."
};
