/* XPM */
static char *monocle16[] = {
/* columns rows colors chars-per-pixel */
"16 16 107 2 ",
"   c #030202",
".  c #040404",
"X  c #070505",
"o  c #080505",
"O  c #080606",
"+  c #0C0C0B",
"@  c #0E0C0B",
"#  c #0D0D0E",
"$  c #0C0E0E",
"%  c #0F1111",
"&  c #101213",
"*  c #121414",
"=  c #131414",
"-  c #151414",
";  c #171B1C",
":  c #1B2122",
">  c #192223",
",  c #1C2121",
"<  c #242A2A",
"1  c #232B2C",
"2  c #212D2F",
"3  c #2B2A2A",
"4  c #253234",
"5  c #2A3435",
"6  c #293537",
"7  c #373B3B",
"8  c #3B3A3A",
"9  c #364547",
"0  c #37484B",
"q  c #3A5356",
"w  c #4C5051",
"e  c #43595B",
"r  c #496063",
"t  c #486165",
"y  c #4A6265",
"u  c #4B696D",
"i  c #4D6B70",
"p  c #557073",
"a  c #577477",
"s  c #5D7E81",
"d  c #5B8186",
"f  c #5F8187",
"g  c #62878E",
"h  c #628A8F",
"j  c #79A4AC",
"k  c #7FADB5",
"l  c #7DB0B6",
"z  c #81AEB5",
"x  c #82B3BB",
"c  c #84B3BB",
"v  c #8CBFC6",
"b  c #8DBEC7",
"n  c #94CCD4",
"m  c #94CDD7",
"M  c #9AD3DA",
"N  c #9ED9DE",
"B  c #9CD5E0",
"V  c #A2DDE8",
"C  c #A5E2ED",
"Z  c #A7E7ED",
"A  c #AFE4EC",
"S  c #ACEDF6",
"D  c #A5ECFD",
"F  c #A8ECFD",
"G  c #A9EDFD",
"H  c #ABECFD",
"J  c #AAEDFD",
"K  c #ABEDFD",
"L  c #ABEDFE",
"P  c #ADEDFD",
"I  c #AEEEFD",
"U  c #ADEEFE",
"Y  c #ACEEFF",
"T  c #ACEFFF",
"R  c #B2EBF2",
"E  c #B2EFFD",
"W  c #B2EFFE",
"Q  c #AEF0FF",
"!  c #AEF2FF",
"~  c #AFF3FF",
"^  c #B2F1FC",
"/  c #B0F3FF",
"(  c #B0F4FF",
")  c #B1F6FF",
"_  c #B2F6FE",
"`  c #B2F7FF",
"'  c #B3F7FF",
"]  c #B3F8FF",
"[  c #B3F9FF",
"{  c #B4F8FF",
"}  c #B4F9FF",
"|  c #B4FAFF",
" . c #B6FCFF",
".. c #B7FDFF",
"X. c #C6F3FF",
"o. c #C9F4FF",
"O. c #C1FDFF",
"+. c #CCFFFF",
"@. c #CFFFFF",
"#. c #D2FFFF",
"$. c #DBFFFF",
"%. c #DCFFFF",
"&. c #DFFFFF",
"*. c #E6FAFF",
"=. c #E8FEFF",
"-. c #EEFEFF",
";. c None",
/* pixels */
";.;.;.;.;.;.;.;.;.;.;.;.;.;.;.;.",
";.;.;.;.;.> q i y 4   ;.;.;.;.;.",
";.;.;.* d A %.%.+.^ x 6 ;.;.;.;.",
";.;.& l *.-.o.^ P !  .Z 0 ;.;.;.",
";.@ h %.*.P D F P F F ] N : ;.;.",
";.2 R =.P F P F F P P P  .s ;.;.",
"o u #.X.D F P P ! F P F ] v # ;.",
". g @.E F P P F P P P F ( m w 8 ",
". f O.P P F ! F F P F P ( n 7 3 ",
";.e ' ! P P F P P F P F ] k - ;.",
";.; M ( F P F P P F ! ! ] y ;.;.",
";.;.r ] ( F P F F P P  .z # ;.;.",
";.;.o a S | ^ ! ! ] | c < ;.;.;.",
";.;.;.o 9 j B C V b p % ;.;.;.;.",
";.;.;.;.;.@ : 6 2 = ;.;.;.;.;.;.",
";.;.;.;.;.;.;.;.;.;.;.;.;.;.;.;."
};
